<svg width="96" height="96" viewBox="0 0 96 96" fill="none" xmlns="http://www.w3.org/2000/svg">
<path fill-rule="evenodd" clip-rule="evenodd" d="M40.0092 67.6324C40.369 67.6453 40.6423 67.6666 40.8331 67.6962C40.8451 67.6981 40.8562 67.6999 40.8664 67.7015C40.9136 67.7092 40.94 67.7135 40.937 67.7035C41.2736 68.0713 41.7175 70.0542 42.2707 73.8312C42.2867 73.9408 42.328 74.2247 42.373 74.5335C42.4292 74.9196 42.491 75.3446 42.5162 75.516C42.9582 78.5297 43.2701 80.2613 43.6873 81.7158C44.3372 83.9816 45.1786 85.2176 46.6644 84.9684C48.3633 84.6833 49.6706 82.3417 52.2088 76.4007C52.378 76.0047 52.5523 75.5935 52.776 75.0638C54.4612 71.072 54.8787 70.1133 55.5814 68.7214C56.0226 67.8475 56.4062 67.1943 56.7315 66.7672C56.8801 66.5721 57.0078 66.4363 57.1029 66.3631C57.1145 66.3542 57.1092 66.3547 57.0856 66.3567C57.0678 66.3583 57.0395 66.3607 57 66.3607C81.9073 64.6537 94 57.8374 94 42.7066C94 25.3841 74.5274 11 48.5 11C19.5709 11 2 22.3302 2 43.2099C2 56.8354 9.49803 64.0394 22.0969 66.5715C26.6963 67.4958 30.6895 67.6928 37.0823 67.6296C38.8923 67.6117 39.401 67.6107 40.0092 67.6324ZM50.9352 74.2765C50.7126 74.8038 50.5394 75.2125 50.3715 75.6055C48.3675 80.2961 46.9573 82.8328 46.3556 82.9788C46.3913 82.9697 46.3776 82.9496 46.2784 82.8039L46.2749 82.7988C46.0554 82.4763 45.8278 81.921 45.6088 81.1574C45.225 79.8196 44.9235 78.1451 44.4947 75.2219C44.4698 75.0519 44.4082 74.6291 44.3522 74.2438C44.3071 73.9339 44.2655 73.6482 44.2493 73.5376C43.5199 68.5574 43.1238 66.8316 42.1 66.0587C41.4823 65.5924 41.0557 65.5772 37.0627 65.6166C30.8006 65.6785 26.9143 65.4868 22.4884 64.5973C10.7428 62.2368 4 55.7583 4 43.2099C4 23.6778 20.5388 13.0131 48.5 13.0131C73.533 13.0131 92 26.6544 92 42.7066C92 56.4238 80.8505 62.7084 56.932 64.3499C55.2368 64.3476 54.566 65.6763 50.9352 74.2765Z" fill="#05070F"/>
<path d="M24.9539 49C29.1224 49 31.8694 45.7959 31.8694 41.5306V41.3673C31.8694 37.0816 29.0455 34 24.9539 34C20.8814 34 18 37.1633 18 41.4286V41.5918C18 45.7959 20.747 49 24.9539 49ZM24.9923 46.8163C22.4951 46.8163 20.6701 44.7551 20.6701 41.5714V41.4082C20.6701 38.2653 22.2645 36.1633 24.9539 36.1633C27.6432 36.1633 29.2184 38.3878 29.2184 41.3878V41.551C29.2184 44.7143 27.5856 46.8163 24.9923 46.8163Z" fill="#FF0064"/>
<path d="M40.7193 49C44.8878 49 47.6348 45.7959 47.6348 41.5306V41.3673C47.6348 37.0816 44.811 34 40.7193 34C36.6469 34 33.7654 37.1633 33.7654 41.4286V41.5918C33.7654 45.7959 36.5124 49 40.7193 49ZM40.7577 46.8163C38.2605 46.8163 36.4356 44.7551 36.4356 41.5714V41.4082C36.4356 38.2653 38.0299 36.1633 40.7193 36.1633C43.4086 36.1633 44.9838 38.3878 44.9838 41.3878V41.551C44.9838 44.7143 43.351 46.8163 40.7577 46.8163Z" fill="#FF0064"/>
<path d="M50.2224 48.7959H52.7772V43.2449H54.6982C57.6373 43.2449 59.7311 41.8776 59.7311 38.7959V38.7143C59.7311 35.6531 57.7141 34.2041 54.6406 34.2041H50.2224V48.7959ZM52.7772 41.2857V36.3061H54.6406C56.2734 36.3061 57.2339 36.9796 57.2339 38.7143V38.7959C57.2339 40.4082 56.331 41.2857 54.6406 41.2857H52.7772Z" fill="#FF0064"/>
<path d="M66.6412 49C69.6763 49 71.6933 47.0204 71.6933 44.4898C71.6933 41.5714 70.0221 40.5918 66.7949 40.1224C64.4129 39.7551 63.9519 39.1633 63.9519 37.9796C63.9519 36.8571 64.7587 36.0612 66.3146 36.0612C67.8898 36.0612 68.7158 36.7143 68.9656 38.2449H71.3091C71.0402 35.449 69.2729 34.0204 66.3146 34.0204C63.4524 34.0204 61.5314 35.8163 61.5314 38.2041C61.5314 40.9388 63.0874 42 66.3723 42.4694C68.6006 42.8571 69.2345 43.3673 69.2345 44.7143C69.2345 46.0612 68.1588 46.9592 66.6412 46.9592C64.3168 46.9592 63.7598 45.7347 63.5869 44.2653H61.128C61.3201 47.0204 62.8953 49 66.6412 49Z" fill="#FF0064"/>
<path d="M74.522 44.4082H76.4045L76.7695 34.2041H74.1762L74.522 44.4082ZM75.444 48.9388C76.3085 48.9388 77 48.2449 77 47.3673C77 46.4694 76.3085 45.7755 75.444 45.7755C74.5988 45.7755 73.9072 46.4694 73.9072 47.3673C73.9072 48.2449 74.5988 48.9388 75.444 48.9388Z" fill="#FF0064"/>
</svg>
